<svg width="22" height="22" viewBox="0 0 22 22" fill="none" xmlns="http://www.w3.org/2000/svg">
<path d="M3.42587 5.67108C4.46003 4.95474 5.70714 4.57796 6.9436 4.63822C5.79278 5.14289 4.71094 5.90823 3.99063 7.00185C3.11849 8.29488 2.81204 9.92649 2.86481 11.492C2.96943 13.6101 4.09849 15.6307 5.77195 16.7876C6.17885 17.0747 6.63066 17.2756 7.08757 17.4529C5.82657 17.5377 4.54382 17.1835 3.48096 16.4612C2.29681 15.666 1.38671 14.4235 0.960827 13.0089C0.583084 11.7712 0.573826 10.4106 0.936755 9.16752C1.34644 7.74171 2.24589 6.48297 3.42587 5.67108Z" fill="#242F22"/>
<path opacity="0.9" d="M8.3146 5.02234C9.04594 4.73646 9.8309 4.60602 10.6094 4.6428C9.36954 5.14444 8.23185 6.01337 7.51021 7.20838C6.88381 8.23128 6.58286 9.44886 6.52692 10.6591C6.33785 13.0398 7.50467 15.4421 9.36445 16.7617C9.79392 17.0613 10.2608 17.3045 10.7546 17.458C9.56 17.5364 8.34511 17.2314 7.31651 16.5812C6.07296 15.8054 5.10585 14.5442 4.64957 13.0918C4.08558 11.326 4.29361 9.30273 5.22003 7.7164C5.92734 6.48412 7.03452 5.51369 8.3146 5.02234Z" fill="#7E857A"/>
<path d="M13.9426 4.64587C15.3238 4.54057 16.7358 4.89809 17.8965 5.65475C19.4609 6.65628 20.5531 8.365 20.7819 10.2099C21.0146 11.9132 20.5188 13.6998 19.4384 15.0378C18.5011 16.223 17.1322 17.0585 15.6467 17.343C14.5678 17.5546 13.435 17.4807 12.3924 17.1315C11.3738 16.7926 10.4438 16.1916 9.71625 15.4022C8.68098 14.2939 8.06119 12.8075 8.01023 11.2912C7.95193 9.89154 8.37182 8.47764 9.18759 7.33801C10.2694 5.7953 12.0602 4.77565 13.9426 4.64587Z" fill="#F3F4EF"/>
</svg>
