<svg width="22" height="22" viewBox="0 0 22 22" fill="none" xmlns="http://www.w3.org/2000/svg">
<path fill-rule="evenodd" clip-rule="evenodd" d="M9.5997 2.8411C10.0091 2.17113 10.9822 2.17113 11.3916 2.8411L14.8131 8.43998C15.2407 9.13965 14.7372 10.0375 13.9172 10.0375H7.07411C6.25413 10.0375 5.75059 9.13965 6.17816 8.43998L9.5997 2.8411ZM15.7894 20.625C18.1815 20.625 20.1206 18.6858 20.1206 16.2938C20.1206 13.9017 18.1815 11.9625 15.7894 11.9625C13.3973 11.9625 11.4581 13.9017 11.4581 16.2938C11.4581 18.6858 13.3973 20.625 15.7894 20.625Z" fill="#7E857A"/>
<path d="M1.83301 13.9437C1.83301 13.1153 2.50458 12.4437 3.33301 12.4437H8.03301C8.86143 12.4437 9.53301 13.1153 9.53301 13.9437V18.6437C9.53301 19.4722 8.86143 20.1437 8.03301 20.1437H3.33301C2.50458 20.1437 1.83301 19.4722 1.83301 18.6437V13.9437Z" fill="#F3F4EF"/>
</svg>
