<svg width="105" height="112" viewBox="0 0 105 112" fill="none" xmlns="http://www.w3.org/2000/svg">
<g clip-path="url(#clip0_999_16156)">
<path fill-rule="evenodd" clip-rule="evenodd" d="M104.536 44.9567L114.333 56.1589L104.536 67.3612L105.901 82.177L91.4066 85.4694L83.818 98.2777L70.1665 92.4156L56.515 98.3179L48.9264 85.5096L34.4318 82.2172L35.7969 67.3612L26 56.1589L35.7969 44.9166L34.4318 30.0605L48.9264 26.8083L56.515 14L70.1665 19.8621L83.818 14L91.4066 26.8484L105.901 30.1409L104.536 44.9567ZM47.2383 59.8128L62.4958 75.1104L91.9268 45.5992L85.9843 39.6568L62.4958 63.2256L53.1807 53.8704L47.2383 59.8128Z" fill="#F8F8F8"/>
</g>
<defs>
<clipPath id="clip0_999_16156">
<rect width="112" height="112" fill="white"/>
</clipPath>
</defs>
</svg>
