<svg width="102" height="112" viewBox="0 0 102 112" fill="none" xmlns="http://www.w3.org/2000/svg">
<g clip-path="url(#clip0_999_16178)">
<path d="M94.3483 22.5564C95.4303 23.2528 96.5361 23.9879 97.6729 24.6723C97.9113 24.8125 98.2521 24.7787 98.5452 24.7787C102.676 24.7787 106.807 24.7787 110.938 24.7787C113.743 24.7787 116.42 25.359 118.86 26.7978C122.096 28.6467 124.52 31.671 125.646 35.2614C126.171 36.9324 126.42 38.6802 126.382 40.4338C126.358 43.2316 126.382 46.0294 126.382 48.8297C126.382 49.6131 126.418 49.6446 127.19 49.6494C128.122 49.6494 129.056 49.6494 129.988 49.6494C130.246 49.6407 130.502 49.684 130.743 49.7768C130.985 49.8697 131.205 50.0101 131.392 50.1901C131.579 50.3701 131.729 50.586 131.834 50.8252C131.938 51.0645 131.994 51.3224 131.999 51.5839C131.999 51.6452 131.999 51.7057 131.999 51.7653C131.999 58.973 131.999 66.1808 131.999 73.3885C132.008 73.7686 131.926 74.1451 131.761 74.4863C131.606 74.8054 131.366 75.0742 131.068 75.2625C130.77 75.4509 130.427 75.5514 130.076 75.5527C129.106 75.5648 128.131 75.5914 127.161 75.5527C126.561 75.5285 126.37 75.7462 126.375 76.3507C126.396 79.8546 126.375 83.3634 126.375 86.86C126.405 90.313 125.259 93.6707 123.132 96.3657C121.004 99.0608 118.024 100.928 114.697 101.652C113.77 101.863 112.824 101.971 111.875 101.974C96.2191 101.993 80.5657 102.022 64.9242 101.974C60.6343 101.959 57.0809 100.066 54.2471 96.8132C52.4379 94.7299 51.2515 92.1664 50.8271 89.4233C50.6961 88.5899 50.6292 87.7475 50.6269 86.9035C50.6055 83.419 50.6269 79.9368 50.6269 76.4547C50.6269 75.5842 50.6269 75.5769 49.7666 75.5721C48.9539 75.5721 48.1388 75.5721 47.3261 75.5721C45.7555 75.5575 45.0095 74.7983 45 73.1902C45 71.7997 45 70.4117 45 69.0213C45 63.3789 45 57.7422 45 52.1111C45 51.4364 45.0334 50.7932 45.5672 50.2733C45.7582 50.0694 45.9887 49.9078 46.2442 49.7987C46.4998 49.6897 46.7748 49.6355 47.052 49.6397C47.9839 49.6567 48.9181 49.6156 49.85 49.6397C50.4458 49.6639 50.646 49.4511 50.6412 48.8418C50.619 45.8013 50.619 42.7617 50.6412 39.7229C50.6889 32.9327 55.3744 26.8462 61.8093 25.3058C63.199 24.9818 64.6186 24.8075 66.0444 24.7859C69.8322 24.7166 73.6216 24.7166 77.4127 24.7859C78.6394 24.8568 79.8512 24.4841 80.8327 23.734C81.3929 23.3186 81.9745 22.9336 82.5748 22.5805C82.9728 22.3387 82.9633 22.1235 82.7059 21.7656C81.5882 20.1962 80.9971 18.4286 81.1449 16.4989C81.4428 12.6298 83.9071 9.63131 87.6536 9.0848C92.7395 8.34484 96.3431 12.5766 96.3264 16.7407C96.3264 18.6897 95.833 20.4284 94.6581 21.9663C94.5724 22.0787 94.4928 22.1957 94.4198 22.317C94.3554 22.3726 94.3626 22.4137 94.3483 22.5564Z" fill="#F8F8F8"/>
</g>
<defs>
<clipPath id="clip0_999_16178">
<rect width="112" height="112" fill="white"/>
</clipPath>
</defs>
</svg>
