<svg width="112" height="112" viewBox="0 0 112 112" fill="none" xmlns="http://www.w3.org/2000/svg">
<g clip-path="url(#clip0_999_16168)">
<path d="M6.59043 43.5654C6.52264 43.1836 6.50908 42.9609 6.44128 42.7518C6.32829 42.4291 6.21982 42.1063 6.10683 41.779C5.70459 40.6245 6.41417 39.3563 7.61638 39.1563C8.00055 39.0927 8.37116 39.0745 8.7282 39.1472C13.6636 40.1518 18.5674 41.3427 23.4666 42.5154C31.5115 44.4427 39.5836 46.2882 47.5697 48.4336C49.8792 49.0518 52.2339 50.2336 54.0734 51.7609C59.2439 56.061 65.1691 58.8701 71.6818 59.311C82.6871 60.061 89.4393 54.4609 91.5952 43.2291C91.7805 42.2745 90.9579 40.9881 90.3297 40.0427C88.445 37.2199 88.4496 36.6199 90.4472 33.9654C90.7952 33.5017 90.8449 32.4608 90.5693 31.929C89.0868 29.0426 87.4688 26.2244 85.8689 23.3971C85.2 22.2153 84.3412 22.6244 83.3605 23.0607C80.0702 24.5335 76.8206 26.2062 73.3857 27.2062C71.6005 27.7244 69.3497 27.3199 67.4967 26.729C65.2143 26.0017 65.0742 24.4017 66.5927 22.5153C68.2017 20.5198 69.6887 18.4289 71.2524 16.3971C72.2648 15.0834 73.0693 13.3243 74.4117 12.6061C77.8601 10.7607 79.1256 7.5152 81.0329 4.45154C83.6814 0.201515 87.2247 -3.49851 90.4969 -7.33944C91.5862 -8.62127 93.1228 -7.98035 94.0945 -5.91216C95.4369 -3.04851 95.3962 -0.0257592 94.8086 2.99244C94.2572 5.81064 93.6787 8.63793 92.9104 11.4016C92.4178 13.1652 92.7613 14.3652 94.1307 15.5925C100.21 21.0516 105.416 27.1971 108.06 35.1154C112.638 48.8245 111.956 62.2428 105.403 75.2065C102.289 81.3702 98.6819 87.2202 93.4844 91.8975C92.5714 92.7203 92.5308 93.4885 93.2539 94.4476C94.4832 96.0748 95.7126 97.7067 96.8334 99.4112C98.1441 101.407 97.5701 102.82 95.2244 102.575C91.6901 102.207 88.0925 101.539 84.7706 100.316C82.6599 99.5385 81.0374 99.4112 79.0488 100.316C71.2208 103.866 62.9635 104.325 54.5209 103.839C49.1922 103.529 44.0851 102.516 39.1135 100.643C30.2551 97.3021 23.5435 91.2839 18.2646 83.5566C11.6298 73.8383 6.35541 63.3928 2.07986 52.4337C1.66858 51.3791 1.36576 50.2791 1.1895 49.1609C0.583872 45.2927 1.30701 44.3972 5.16223 43.9882C5.64583 43.9381 6.11135 43.7109 6.59947 43.5654H6.59043Z" fill="#F8F8F8"/>
</g>
<defs>
<clipPath id="clip0_999_16168">
<rect width="112" height="112" fill="white"/>
</clipPath>
</defs>
</svg>
