<svg fill="none" height="8" viewBox="0 0 13 8" width="13" xmlns="http://www.w3.org/2000/svg" xmlns:xlink="http://www.w3.org/1999/xlink"><filter id="a" color-interpolation-filters="sRGB" filterUnits="userSpaceOnUse" height="206" width="568" x="-50" y="-134"><feFlood flood-opacity="0" result="BackgroundImageFix"/><feColorMatrix in="SourceAlpha" result="hardAlpha" type="matrix" values="0 0 0 0 0 0 0 0 0 0 0 0 0 0 0 0 0 0 127 0"/><feMorphology in="SourceAlpha" operator="erode" radius="4" result="effect1_dropShadow_1_5"/><feOffset dy="12"/><feGaussianBlur stdDeviation="12"/><feColorMatrix type="matrix" values="0 0 0 0 0.568627 0 0 0 0 0.619608 0 0 0 0 0.670588 0 0 0 0.12 0"/><feBlend in2="BackgroundImageFix" mode="normal" result="effect1_dropShadow_1_5"/><feColorMatrix in="SourceAlpha" result="hardAlpha" type="matrix" values="0 0 0 0 0 0 0 0 0 0 0 0 0 0 0 0 0 0 127 0"/><feOffset/><feGaussianBlur stdDeviation="1"/><feComposite in2="hardAlpha" operator="out"/><feColorMatrix type="matrix" values="0 0 0 0 0.568627 0 0 0 0 0.619608 0 0 0 0 0.670588 0 0 0 0.2 0"/><feBlend in2="effect1_dropShadow_1_5" mode="normal" result="effect2_dropShadow_1_5"/><feBlend in="SourceGraphic" in2="effect2_dropShadow_1_5" mode="normal" result="shape"/></filter><path d="m0 0h13v8h-13z" fill="#e5e5e5"/><rect height="2790" rx="59" stroke="#8b7bba" stroke-width="28" width="7950" x="-3601" y="-452"/><path d="m-350-200h1440v995h-1440z" fill="#f3f4ef"/><g filter="url(#a)"><path d="m-30-110c0-8.837 7.1634-16 16-16h496c8.837 0 16 7.163 16 16v134c0 8.8366-7.163 16-16 16h-496c-8.8366 0-16-7.1634-16-16z" fill="#fff" shape-rendering="crispEdges"/><circle cx="6" cy="4" fill="#e7ff88" r="12"/><path d="m12.0002.666667c.0063-.046454.0063-.093547 0-.14-.0058-.039141-.017-.077284-.0333-.113334-.0176-.032581-.0377-.063782-.06-.093333-.0254-.042165-.0568-.080354-.0934-.113333l-.08-.046667c-.0385-.028696-.0812-.05119-.1266-.0666667h-.1334c-.0406-.0393366-.088-.0709616-.14-.0933333h-3.3333c-.36819 0-.66667.298477-.66667.666667 0 .368193.29848.666663.66667.666663h1.88667l-2.66667 3.14-2.88-1.71333c-.28181-.16761-.64366-.10542-.85333.14667l-3.333338 4c-.1133724.13605-.1679504.31163-.15169106.48798.01625936.17635.10202006.33898.23835806.45202.119941.09938.270898.15363.426667.15333.198288.00032.386424-.08764.513334-.24l2.96667-3.56 2.84666 1.70667c.27874.16532.63599.10625.84667-.14l2.8267-3.3v1.53333c0 .36819.2984.66667.6666.66667s.6667-.29848.6667-.66667z" fill="#212b36"/></g></svg>