<svg width="20" height="20" viewBox="0 0 20 20" fill="none"
  xmlns="http://www.w3.org/2000/svg">
  <path d="M16.7477 4.16695C15.5825 3.62179 14.3367 3.2256 13.0342 3C12.8742 3.28921 12.6873 3.6782 12.5585 3.98764C11.1739 3.77941 9.80201 3.77941 8.44287 3.98764C8.31404 3.6782 8.12292 3.28921 7.96152 3C6.65761 3.2256 5.41032 3.62325 4.24514 4.16984C1.89498 7.72124 1.25789 11.1844 1.57644 14.5984C3.13519 15.7625 4.64581 16.4696 6.13093 16.9323C6.49762 16.4277 6.82465 15.8912 7.10638 15.3258C6.56981 15.1219 6.0559 14.8703 5.57031 14.5782C5.69913 14.4828 5.82514 14.383 5.94689 14.2803C8.90865 15.6656 12.1267 15.6656 15.0531 14.2803C15.1762 14.383 15.3022 14.4828 15.4296 14.5782C14.9426 14.8717 14.4273 15.1233 13.8907 15.3273C14.1724 15.8912 14.4981 16.4291 14.8662 16.9338C16.3527 16.471 17.8647 15.7639 19.4235 14.5984C19.7973 10.6407 18.785 7.20935 16.7477 4.16695ZM7.50988 12.4989C6.62079 12.4989 5.89166 11.6688 5.89166 10.6581C5.89166 9.64732 6.60522 8.81587 7.50988 8.81587C8.41457 8.81587 9.14367 9.64586 9.1281 10.6581C9.12951 11.6688 8.41457 12.4989 7.50988 12.4989ZM13.4901 12.4989C12.601 12.4989 11.8718 11.6688 11.8718 10.6581C11.8718 9.64732 12.5854 8.81587 13.4901 8.81587C14.3947 8.81587 15.1238 9.64586 15.1083 10.6581C15.1083 11.6688 14.3947 12.4989 13.4901 12.4989Z" fill="#5865F2" />
</svg>
